<?xml version="1.0" encoding="UTF-8"?>
<svg width="191px" height="33px" viewBox="0 0 191 33" version="1.1" xmlns="http://www.w3.org/2000/svg" xmlns:xlink="http://www.w3.org/1999/xlink">
    <!-- Generator: Sketch 59 (86127) - https://sketch.com -->
    <title>MARK/ADKINS</title>
    <desc>Created with Sketch.</desc>
    <g id="Symbols" stroke="none" stroke-width="1" fill="none" fill-rule="evenodd">
        <g id="Footer" transform="translate(-65.000000, -466.000000)" fill="#FFFFFF" fill-rule="nonzero">
            <path d="M84.812,473.596 L84.812,493 L82.264,493 L82.264,477.516 L76.076,493 L73.808,493 L67.592,477.572 L67.592,493 L65.044,493 L65.044,473.596 L68.096,473.596 L74.984,489.892 L81.76,473.596 L84.812,473.596 Z M101.864,488.436 L93.184,488.436 L91.532,493 L88.788,493 L96.096,473.624 L98.98,473.624 L106.26,493 L103.516,493 L101.864,488.436 Z M101.136,486.448 L97.524,476.48 L93.912,486.448 L101.136,486.448 Z M120.708,493 L115.556,484.936 L112.784,484.936 L112.784,493 L110.236,493 L110.236,473.26 L116.732,473.26 C118.972011,473.26 120.651994,473.796661 121.772,474.87 C122.892006,475.943339 123.452,477.366658 123.452,479.14 C123.452,480.745341 123.004004,482.037995 122.108,483.018 C121.211996,483.998005 119.914675,484.609332 118.216,484.852 L123.592,493 L120.708,493 Z M112.784,483.088 L116.508,483.088 C119.401348,483.088 120.848,481.818679 120.848,479.28 C120.848,476.741321 119.401348,475.472 116.508,475.472 L112.784,475.472 L112.784,483.088 Z M132.86,483.032 L141.876,493 L138.74,493 L130.508,483.788 L130.508,493 L127.96,493 L127.96,473.26 L130.508,473.26 L130.508,482.416 L138.768,473.26 L141.876,473.26 L132.86,483.032 Z M154.868,466.484 L147.28,498.068 L143.472,498.068 L151.06,466.484 L154.868,466.484 Z M168.308,489.024 L160.384,489.024 L158.984,493 L154.812,493 L162.092,473.456 L166.6,473.456 L173.852,493 L169.68,493 L168.308,489.024 Z M167.244,486.028 L164.332,477.684 L161.42,486.028 L167.244,486.028 Z M193.368,483.088 C193.368,485.04801 192.957337,486.774659 192.136,488.268 C191.314663,489.761341 190.124674,490.923329 188.566,491.754 C187.007326,492.584671 185.154677,493 183.008,493 L175.98,493 L175.98,473.232 L183.008,473.232 C185.154677,473.232 187.007326,473.637996 188.566,474.45 C190.124674,475.262004 191.314663,476.409993 192.136,477.894 C192.957337,479.378007 193.368,481.109323 193.368,483.088 Z M182.672,489.472 C184.800011,489.472 186.447328,488.912006 187.614,487.792 C188.780673,486.671994 189.364,485.10401 189.364,483.088 C189.364,481.053323 188.780673,479.476006 187.614,478.356 C186.447328,477.235994 184.800011,476.676 182.672,476.676 L179.928,476.676 L179.928,489.472 L182.672,489.472 Z M204.008,482.948 L212.38,493 L207.592,493 L200.284,483.956 L200.284,493 L196.336,493 L196.336,473.232 L200.284,473.232 L200.284,482.108 L207.62,473.232 L212.38,473.232 L204.008,482.948 Z M218.512,473.232 L218.512,493 L214.564,493 L214.564,473.232 L218.512,473.232 Z M238.84,493 L234.892,493 L226.044,479.56 L226.044,493 L222.096,493 L222.096,473.232 L226.044,473.232 L234.892,486.784 L234.892,473.232 L238.84,473.232 L238.84,493 Z M256.004,487.596 C256.004,488.604005 255.752003,489.532662 255.248,490.382 C254.743997,491.231338 253.997338,491.912664 253.008,492.426 C252.018662,492.939336 250.814674,493.196 249.396,493.196 C247.995993,493.196 246.745339,492.958002 245.644,492.482 C244.542661,492.005998 243.66067,491.320004 242.998,490.424 C242.33533,489.527996 241.957334,488.482673 241.864,487.288 L246.064,487.288 C246.157334,488.090671 246.479331,488.757997 247.03,489.29 C247.580669,489.822003 248.313329,490.088 249.228,490.088 C250.049337,490.088 250.679331,489.868669 251.118,489.43 C251.556669,488.991331 251.776,488.42667 251.776,487.736 C251.776,487.119997 251.598668,486.611335 251.244,486.21 C250.889332,485.808665 250.441336,485.486668 249.9,485.244 C249.418812,485.028295 248.775394,484.783096 247.96973,484.508395 L247.66,484.404 C246.427994,483.993331 245.420004,483.587335 244.636,483.186 C243.851996,482.784665 243.184669,482.201337 242.634,481.436 C242.083331,480.670663 241.808,479.672006 241.808,478.44 C241.808,476.741325 242.419327,475.402005 243.642,474.422 C244.864673,473.441995 246.48399,472.952 248.5,472.952 C250.590677,472.952 252.25666,473.455995 253.498,474.464 C254.73934,475.472005 255.443999,476.815992 255.612,478.496 L251.356,478.496 C251.243999,477.786663 250.945336,477.203336 250.46,476.746 C249.974664,476.288664 249.312004,476.06 248.472,476.06 C247.743996,476.06 247.156002,476.251331 246.708,476.634 C246.259998,477.016669 246.036,477.571996 246.036,478.3 C246.036,478.87867 246.208665,479.359331 246.554,479.742 C246.899335,480.124669 247.337997,480.437332 247.87,480.68 C248.402003,480.922668 249.125329,481.193332 250.04,481.492 C251.30934,481.940002 252.340663,482.359998 253.134,482.752 C253.927337,483.144002 254.603997,483.731996 255.164,484.516 C255.724003,485.300004 256.004,486.32666 256.004,487.596 Z" id="MARK/ADKINS"></path>
        </g>
    </g>
</svg>